<?xml version="1.0" encoding="UTF-8"?>
<svg id="Layer_1" data-name="Layer 1" xmlns="http://www.w3.org/2000/svg" viewBox="0 0 595.28 687.3">
  <defs>
    <style>
      .cls-1 {
        fill: #3f9cd5;
      }
    </style>
  </defs>
  <path class="cls-1" d="M290.75,668.84c-71.48-72.2-187.89-116.3-200.03-230.28l-.42-366.17c.65-4.52,67.21-21.51,77.69-21.25v361.93c0,.54,2.54,3.51,3.03,6.63,22.25,139.24,233.94,129.72,248.94-9.85V51.14c10.48-.26,77.04,16.73,77.69,21.25v356.92c-7.45,111.68-113.28,164.26-190.51,228.51-3.9,3.24-7.92,6.16-9.94,11.02h-6.46Z"/>
  <path class="cls-1" d="M332.74,38.27v365.15c0,.61-4.06,9.52-5.04,11.06-10.77,16.91-39.27,21.28-56.17,11.29-3.68-2.18-16.32-16.14-16.32-19.13V38.27h77.53Z"/>
</svg>