<?xml version="1.0" encoding="UTF-8"?>
<svg width="160px" height="29px" viewBox="0 0 160 29" version="1.1" xmlns="http://www.w3.org/2000/svg" xmlns:xlink="http://www.w3.org/1999/xlink">
    <title>编组 4</title>
    <g id="海外版-二期" stroke="none" stroke-width="1" fill="none" fill-rule="evenodd">
        <g id="首页导航修改" transform="translate(-60.000000, -224.000000)">
            <g id="编组-4备份-2" transform="translate(0.000000, 202.000000)">
                <g id="编组-4" transform="translate(60.000000, 22.166667)">
                    <g id="logo" transform="translate(0.000000, 0.000000)">
                        <rect id="矩形" fill-opacity="0" fill="#FFFFFF" x="0" y="0" width="160" height="28.6666667"></rect>
                        <g id="编组-3" fill="#4A9CD6" fill-rule="nonzero">
                            <g id="编组">
                                <path d="M16.9091075,0.594470046 C18.3181998,0.792626728 19.6568374,1.12288786 20.9954751,1.51920123 L20.9954751,17.2396313 C20.9954751,19.749616 19.6568374,22.0614439 17.4727444,23.6466974 L10.4977376,28.6666667 L3.52273072,23.6466974 C1.33863767,22.0614439 0,19.8156682 0,17.2396313 L0,1.51920123 C1.33863767,1.12288786 2.67727535,0.792626728 4.08636764,0.594470046 L4.08636764,16.5130568 C4.08636764,19.4193548 6.97500683,21.8632873 10.4977376,21.8632873 C14.0204683,21.8632873 16.9091075,19.4193548 16.9091075,16.5130568 Z M10.4977376,0 C11.2022837,0 11.9068298,0 12.5409214,0.0660522273 L12.5409214,15.984639 C12.5409214,16.9093702 11.6250114,17.6359447 10.4977376,17.6359447 C9.37046372,17.6359447 8.45455374,16.9093702 8.45455374,15.984639 L8.45455374,0.0660522273 C9.15909988,0 9.79319141,0 10.4977376,0 Z" id="形状结合"></path>
                            </g>
                            <g id="XMLID_3051_" transform="translate(28.597285, 6.216867)">
                                <path d="M0,3.37275633 C0,5.23358741 1.58316524,6.62921072 3.40989436,6.62921072 L11.2039386,6.62921072 C12.0564122,6.62921072 12.6653219,7.21072043 12.6653219,8.02483403 C12.6653219,8.83894763 12.0564122,9.42045734 11.2039386,9.42045734 L0,9.42045734 L0,11.3975904 L11.6910664,11.3975904 C13.6395775,11.3975904 15.2227427,9.88566511 15.2227427,8.02483403 C15.2227427,6.16400295 13.6395775,4.6520777 11.6910664,4.6520777 L3.89702213,4.6520777 C3.16633048,4.6520777 2.55742077,4.07056799 2.55742077,3.37275633 C2.55742077,2.67494468 3.16633048,2.09343496 3.89702213,2.09343496 L15.2227427,2.09343496 L15.2227427,0.116301942 L3.40989436,0.116301942 C1.58316524,0.116301942 0,1.62822719 0,3.37275633 Z" id="XMLID_3052_"></path>
                                <path d="M34.3425075,11.3975904 L28.0098466,5.81509712 C27.7662827,5.58249324 27.7662827,5.34988935 28.0098466,5.11728547 L33.9771617,0 L30.8108312,0 L25.9395536,4.18686993 C25.8177716,4.30317187 25.5742077,4.41947381 25.3306438,4.41947381 L22.2860953,4.41947381 C22.0425314,4.41947381 21.9207495,4.30317187 21.9207495,4.07056799 L21.9207495,0 L19.2415468,0 L19.2415468,11.3975904 L21.7989675,11.3975904 L21.7989675,6.86181461 C21.7989675,6.62921072 22.0425314,6.39660684 22.2860953,6.39660684 L24.965298,6.39660684 C25.2088619,6.39660684 25.4524258,6.51290878 25.5742077,6.62921072 L31.176177,11.3975904 L34.3425075,11.3975904 L34.3425075,11.3975904 Z" id="XMLID_3053_"></path>
                                <path d="M50.7830696,0.116301942 L46.0335739,4.88468158 C45.79001,5.23358741 45.1811003,5.23358741 44.9375364,4.88468158 L40.3098227,0.116301942 L37.1434922,0.116301942 L43.719717,6.86181461 C43.9632809,7.09441849 43.9632809,7.32702238 43.9632809,7.55962626 L43.9632809,11.3975904 L46.8860475,11.3975904 L46.8860475,7.44332432 C46.8860475,7.21072043 47.0078294,6.97811655 47.1296114,6.74551266 L53.8276182,0 L50.7830696,0 L50.7830696,0.116301942 Z" id="XMLID_3056_"></path>
                                <path d="M82.0810286,11.3975904 L93.5285311,11.3975904 L93.5285311,9.42045734 L82.9335022,9.42045734 C81.9592467,9.42045734 81.1067731,8.60634374 81.1067731,7.6759282 L81.1067731,6.62921072 L93.5285311,6.62921072 L93.5285311,4.6520777 L81.1067731,4.6520777 L81.1067731,3.72166216 C81.1067731,2.79124662 81.9592467,1.97713302 82.9335022,1.97713302 L93.5285311,1.97713302 L93.5285311,0 L82.0810286,0 C80.1325175,0 78.6711342,1.51192525 78.6711342,3.25645439 L78.6711342,8.02483403 C78.6711342,10.0019671 80.1325175,11.3975904 82.0810286,11.3975904 Z" id="XMLID_3057_"></path>
                                <path d="M100.104756,8.25743791 L100.104756,0.116301942 L97.5473352,0.116301942 L97.5473352,9.18785345 C97.5473352,10.4671748 98.6433727,11.3975904 99.8611921,11.3975904 L112.404732,11.3975904 L112.404732,9.42045734 L101.322575,9.42045734 C100.713666,9.42045734 100.104756,8.95524957 100.104756,8.25743791 Z" id="XMLID_3061_"></path>
                                <path d="M120.44234,9.42045734 C119.711649,9.42045734 119.102739,8.83894763 119.102739,8.14113597 L119.102739,0 L116.545318,0 L116.545318,9.07155151 C116.545318,10.3508729 117.641356,11.2812884 118.859175,11.2812884 L131.402715,11.2812884 L131.402715,9.3041554 L120.44234,9.3041554 L120.44234,9.42045734 Z" id="XMLID_3065_"></path>
                                <g id="XMLID_3068_" transform="translate(56.628603, 0.000000)">
                                    <path d="M5.35840543,11.3975904 L12.7871039,11.3975904 C15.7098705,11.3975904 18.0237273,9.18785345 18.0237273,6.39660684 L18.0237273,0 L15.4663066,0 L15.4663066,5.69879518 C15.4663066,7.55962626 13.8831413,9.18785345 11.8128483,9.18785345 L6.21087902,9.18785345 C4.26236795,9.18785345 2.55742077,7.6759282 2.55742077,5.69879518 L2.55742077,0 L0,0 L0,6.39660684 C0.121781942,9.18785345 2.43563883,11.3975904 5.35840543,11.3975904 Z" id="XMLID_3069_"></path>
                                    <path d="M8.76829979,6.28030489 L9.3772095,6.28030489 C9.86433727,6.28030489 10.351465,5.81509712 10.351465,5.34988935 L10.351465,0 L7.79404426,0 L7.79404426,5.34988935 C7.79404426,5.93139907 8.28117203,6.28030489 8.76829979,6.28030489 Z" id="XMLID_3070_"></path>
                                </g>
                            </g>
                        </g>
                    </g>
                </g>
            </g>
        </g>
    </g>
</svg>